<svg xmlns="http://www.w3.org/2000/svg" xmlns:xlink="http://www.w3.org/1999/xlink" contentStyleType="text/css" height="503px" preserveAspectRatio="none" style="width:495px;height:503px;background:#FFFFFF;" version="1.1" viewBox="0 0 495 503" width="495px" zoomAndPan="magnify"><defs/><g><!--class USERS--><g id="elem_USERS"><rect codeLine="4" fill="#F1F1F1" height="210.9688" id="USERS" rx="2.5" ry="2.5" style="stroke:#181818;stroke-width:0.5;" width="257.1641" x="7" y="7"/><ellipse cx="108.0352" cy="23" fill="#ADD1B2" rx="11" ry="11" style="stroke:#181818;stroke-width:1.0;"/><path d="M112.1445,29 L104.4258,29 L104.4258,16.6094 L112.1445,16.6094 L112.1445,18.7656 L106.8789,18.7656 L106.8789,21.4375 L111.6445,21.4375 L111.6445,23.5938 L106.8789,23.5938 L106.8789,26.8438 L112.1445,26.8438 L112.1445,29 Z " fill="#000000"/><text fill="#000000" font-family="sans-serif" font-size="14" lengthAdjust="spacing" textLength="46.5938" x="128.5352" y="27.8467">USERS</text><line style="stroke:#181818;stroke-width:0.5;" x1="8" x2="263.1641" y1="39" y2="39"/><text fill="#000000" font-family="sans-serif" font-size="14" lengthAdjust="spacing" textLength="63.9912" x="13" y="55.9951">ID: bigint</text><line style="stroke:#181818;stroke-width:1.0;" x1="8" x2="263.1641" y1="63.2969" y2="63.2969"/><text fill="#000000" font-family="sans-serif" font-size="14" lengthAdjust="spacing" textLength="174.6514" x="13" y="80.292">User_UUID: varchar(300)</text><text fill="#000000" font-family="sans-serif" font-size="14" lengthAdjust="spacing" textLength="178.9854" x="13" y="96.5889">USERNAME: nvarchar(50)</text><text fill="#000000" font-family="sans-serif" font-size="14" lengthAdjust="spacing" textLength="180.626" x="13" y="112.8857">FIRSTNAME: nvarchar(50)</text><text fill="#000000" font-family="sans-serif" font-size="14" lengthAdjust="spacing" textLength="176.0938" x="13" y="129.1826">LASTNAME: nvarchar(50)</text><text fill="#000000" font-family="sans-serif" font-size="14" lengthAdjust="spacing" textLength="245.1641" x="13" y="145.4795">PASSWORD_HASH: varbinary(max)</text><text fill="#000000" font-family="sans-serif" font-size="14" lengthAdjust="spacing" textLength="240.4609" x="13" y="161.7764">PASSWORD_SALT: varbinary(max)</text><text fill="#000000" font-family="sans-serif" font-size="14" lengthAdjust="spacing" textLength="142.7344" x="13" y="178.0732">EMAIL: nvarchar(50)</text><text fill="#000000" font-family="sans-serif" font-size="14" lengthAdjust="spacing" textLength="64.8115" x="13" y="194.3701">ROLE: int</text><text fill="#000000" font-family="sans-serif" font-size="14" lengthAdjust="spacing" textLength="94.4385" x="13" y="210.667">BLOCKED: bit</text></g><!--class TICKETS--><g id="elem_TICKETS"><rect codeLine="18" fill="#F1F1F1" height="218.9688" id="TICKETS" rx="2.5" ry="2.5" style="stroke:#181818;stroke-width:0.5;" width="215.9707" x="27.6" y="277.97"/><ellipse cx="102.3749" cy="293.97" fill="#ADD1B2" rx="11" ry="11" style="stroke:#181818;stroke-width:1.0;"/><path d="M106.4843,299.97 L98.7655,299.97 L98.7655,287.5794 L106.4843,287.5794 L106.4843,289.7356 L101.2187,289.7356 L101.2187,292.4075 L105.9843,292.4075 L105.9843,294.5637 L101.2187,294.5637 L101.2187,297.8137 L106.4843,297.8137 L106.4843,299.97 Z " fill="#000000"/><text fill="#000000" font-family="sans-serif" font-size="14" lengthAdjust="spacing" textLength="57.9209" x="122.8749" y="298.8167">TICKETS</text><line style="stroke:#181818;stroke-width:0.5;" x1="28.6" x2="242.5707" y1="309.97" y2="309.97"/><text fill="#000000" font-family="sans-serif" font-size="14" lengthAdjust="spacing" textLength="63.9912" x="33.6" y="326.9651">ID: bigint</text><line style="stroke:#181818;stroke-width:1.0;" x1="28.6" x2="242.5707" y1="334.2669" y2="334.2669"/><text fill="#000000" font-family="sans-serif" font-size="14" lengthAdjust="spacing" textLength="138.1816" x="33.6" y="351.262">TITLE: nvarchar(50)</text><text fill="#000000" font-family="sans-serif" font-size="14" lengthAdjust="spacing" textLength="203.9707" x="33.6" y="367.5589">DESCRIPTION: nvarchar(500)</text><text fill="#000000" font-family="sans-serif" font-size="14" lengthAdjust="spacing" textLength="71.832" x="33.6" y="383.8557">STATE: int</text><text fill="#000000" font-family="sans-serif" font-size="14" lengthAdjust="spacing" textLength="193.9766" x="33.6" y="400.1526">CREATION_TIME: datetime2</text><text fill="#000000" font-family="sans-serif" font-size="14" lengthAdjust="spacing" textLength="111.7744" x="33.6" y="416.4495">Severity: tinyint</text><text fill="#000000" font-family="sans-serif" font-size="14" lengthAdjust="spacing" textLength="141.1895" x="33.6" y="432.7464">CVE: nvarchar(max)</text><text fill="#000000" font-family="sans-serif" font-size="14" lengthAdjust="spacing" textLength="162.415" x="33.6" y="449.0432">TIMESTAMP: datetime2</text><line style="stroke:#181818;stroke-width:1.0;" x1="28.6" x2="242.5707" y1="456.345" y2="456.345"/><text fill="#000000" font-family="sans-serif" font-size="14" lengthAdjust="spacing" textLength="138.2158" x="33.6" y="473.3401">CREATOR_ID: bigint</text><text fill="#000000" font-family="sans-serif" font-size="14" lengthAdjust="spacing" textLength="200.8125" x="33.6" y="489.637">ASSIGNEDPERSON_ID: bigint</text></g><!--class LOG_ENTRIES--><g id="elem_LOG_ENTRIES"><rect codeLine="33" fill="#F1F1F1" height="113.1875" id="LOG_ENTRIES" rx="2.5" ry="2.5" style="stroke:#181818;stroke-width:0.5;" width="189.1807" x="298.99" y="55.89"/><ellipse cx="341.4642" cy="71.89" fill="#ADD1B2" rx="11" ry="11" style="stroke:#181818;stroke-width:1.0;"/><path d="M345.5735,77.89 L337.8548,77.89 L337.8548,65.4994 L345.5735,65.4994 L345.5735,67.6556 L340.3079,67.6556 L340.3079,70.3275 L345.0735,70.3275 L345.0735,72.4837 L340.3079,72.4837 L340.3079,75.7337 L345.5735,75.7337 L345.5735,77.89 Z " fill="#000000"/><text fill="#000000" font-family="sans-serif" font-size="14" lengthAdjust="spacing" textLength="96.127" x="361.5695" y="76.7367">LOG_ENTRIES</text><line style="stroke:#181818;stroke-width:0.5;" x1="299.99" x2="487.1707" y1="87.89" y2="87.89"/><text fill="#000000" font-family="sans-serif" font-size="14" lengthAdjust="spacing" textLength="63.9912" x="304.99" y="104.8851">ID: bigint</text><line style="stroke:#181818;stroke-width:1.0;" x1="299.99" x2="487.1707" y1="112.1869" y2="112.1869"/><text fill="#000000" font-family="sans-serif" font-size="14" lengthAdjust="spacing" textLength="162.415" x="304.99" y="129.182">TIMESTAMP: datetime2</text><text fill="#000000" font-family="sans-serif" font-size="14" lengthAdjust="spacing" textLength="70.2871" x="304.99" y="145.4789">LEVEL: int</text><text fill="#000000" font-family="sans-serif" font-size="14" lengthAdjust="spacing" textLength="177.1807" x="304.99" y="161.7757">MESSAGE: nvarchar(500)</text></g><!--link USERS to TICKETS--><g id="link_USERS_TICKETS"><path codeLine="41" d="M99.59,226.4 C99.59,245.77 99.59,250.02 99.59,269.5 " fill="none" id="USERS-TICKETS" style="stroke:#181818;stroke-width:1.0;"/><line style="stroke:#181818;stroke-width:1.0;" x1="95.59" x2="103.59" y1="222.4" y2="222.4"/><line style="stroke:#181818;stroke-width:1.0;" x1="95.59" x2="103.59" y1="225.4" y2="225.4"/><line style="stroke:#181818;stroke-width:1.0;" x1="99.59" x2="99.59" y1="226.4" y2="218.4"/><line style="stroke:#181818;stroke-width:1.0;" x1="99.59" x2="107.59" y1="269.5" y2="277.5"/><line style="stroke:#181818;stroke-width:1.0;" x1="99.59" x2="91.59" y1="269.5" y2="277.5"/><line style="stroke:#181818;stroke-width:1.0;" x1="99.59" x2="99.59" y1="269.5" y2="277.5"/></g><!--link USERS to TICKETS--><g id="link_USERS_TICKETS"><path codeLine="42" d="M171.58,226.4 C171.58,245.77 171.58,240.02 171.58,259.5 " fill="none" id="USERS-TICKETS-1" style="stroke:#181818;stroke-width:1.0;"/><line style="stroke:#181818;stroke-width:1.0;" x1="167.58" x2="175.58" y1="222.4" y2="222.4"/><line style="stroke:#181818;stroke-width:1.0;" x1="167.58" x2="175.58" y1="225.4" y2="225.4"/><line style="stroke:#181818;stroke-width:1.0;" x1="171.58" x2="171.58" y1="226.4" y2="218.4"/><line style="stroke:#181818;stroke-width:1.0;" x1="171.58" x2="177.58" y1="269.5" y2="277.5"/><line style="stroke:#181818;stroke-width:1.0;" x1="171.58" x2="165.58" y1="269.5" y2="277.5"/><line style="stroke:#181818;stroke-width:1.0;" x1="171.58" x2="171.58" y1="269.5" y2="277.5"/><ellipse cx="171.58" cy="263.5" fill="none" rx="4" ry="4" style="stroke:#181818;stroke-width:1.0;"/></g><!--SRC=[TPB1Ru8m5CRl_1KzkWE9sR8BjquwR5Q1jCKTIN7DRAR5bCwCwVxt5LG6KoualD_ttlU-1zM7qZjXn1QiDgAgeBL65PzMubMfcVgMOEfLdMIZjBJrJeBIs7NfUL9RPMkGCKGPE7W0u300XNfNsheNttUFh98cpx86x8LPhOMPF4odTmrnNJ5Se03e2tbimJEcZDya18w053Bscj0mdqCsRvqAfOMf9rlnDU0C4dw3emN4v6egJOYpEeLv8idi1RNnhFVJHUVOLVbOU8uvkLusH6n6SSfn4WzO2nc7l3ETKGGRMSvn4_fDM6dLLjutEhcNncqG0AjqVPOl-sRdQ4sh6xf8X_tjVktyXEQ3pTsfS1IZC7KVrLdts5ziaaGvYZd5Q3pwJLk2beXSuZa5Wn7wVmHdS_gZZaVVFtGdxXNBhleB]--></g></svg>